<?xml version="1.0" encoding="utf-8"?>
<!-- Generator: Adobe Illustrator 19.2.0, SVG Export Plug-In . SVG Version: 6.00 Build 0)  -->
<svg version="1.1" id="Layer_1" xmlns="http://www.w3.org/2000/svg" xmlns:xlink="http://www.w3.org/1999/xlink" x="0px" y="0px"
	 viewBox="0 0 1600 900" style="enable-background:new 0 0 1600 900;" xml:space="preserve">
<style type="text/css">
	.st0{fill:#003366;}
</style>
<g>
	<path class="st0" d="M1256.8,332h-128c-14.4,0-27.5,11.6-29.4,26s8.2,26,22.6,26h36l-15.6,118c-2,15.5,8.8,28,24.3,28
		s29.7-12.5,31.7-28l15.6-118h36c14.4,0,27.5-11.6,29.4-26S1271.1,332,1256.8,332z"/>
	<path class="st0" d="M471.5,332h-96c-15.5,0-29.7,12.5-31.7,28l-18.6,140c-2,15.5,8.8,28,24.3,28h96c14.4,0,27.5-11.6,29.4-26
		c1.9-14.4-8.2-26-22.6-26h-68l12.3-92h68c14.4,0,27.5-11.6,29.4-26C496,343.6,485.9,332,471.5,332z"/>
	<circle class="st0" cx="436.9" cy="430" r="31"/>
	<path class="st0" d="M1060,330c-15.5,0-29.7,12.5-31.7,28l-5.8,44h-58l5.8-44c2-15.5-8.8-28-24.3-28c-15.5,0-29.7,12.5-31.7,28
		l-19,144c-2,15.5,8.8,28,24.3,28c15.5,0,29.7-12.5,31.7-28l6.3-48h58l-6.3,48c-2,15.5,8.8,28,24.3,28s29.7-12.5,31.7-28l19-144
		C1086.4,342.5,1075.5,330,1060,330z"/>
</g>
<g>
	<path class="st0" d="M793.1,330C733,330,688.1,367.4,680,430c-8.1,63,26.8,100,86.8,100c59.9,0,104.7-37,113.2-100
		C888.4,367.4,853.3,330,793.1,330z M824,430c-4.1,31-23.3,48-50.3,48c-27.5,0-41.8-17-37.7-48c4.1-31,22.9-48,50.3-48
		C813.5,382,828,399,824,430z"/>
</g>
<g>
	<path class="st0" d="M793.1,330C733,330,688.1,367.4,680,430c-8.1,63,26.8,100,86.8,100c59.9,0,104.7-37,113.2-100
		C888.4,367.4,853.3,330,793.1,330z M824,430c-4.1,31-23.3,48-50.3,48c-27.5,0-41.8-17-37.7-48c4.1-31,22.9-48,50.3-48
		C813.5,382,828,399,824,430z"/>
</g>
<path class="st0" d="M658.2,330c-7.8,0-15.4,3.3-21.1,8.6l0,0l-0.4,0.4c0,0-0.1,0.1-0.1,0.1l-67.5,63.6l5.9-44.6
	c2-15.5-8.8-28-24.3-28s-29.7,12.5-31.7,28l-19,144c-2,15.5,8.8,28,24.3,28c15.5,0,29.7-12.5,31.7-28l6.5-49l55.2,67.6
	c0.1,0.1,0.2,0.2,0.2,0.3l0.4,0.5l0,0c4.3,5.1,10.8,8.2,18.5,8.2c15.2,0,29.1-12.3,31.1-27.5c1-7.7-1.2-14.6-5.6-19.6l0,0
	l-47.5-54.7l56-50.4l0,0c5.9-5,10.2-12.1,11.2-19.9C684.1,342.3,673.4,330,658.2,330z"/>
</svg>
