<svg xmlns="http://www.w3.org/2000/svg" width="275.332" height="36.603" viewBox="0 0 275.332 36.603">
  <g id="Group_1287" data-name="Group 1287" transform="translate(-5985.377 10727)">
    <g id="Econt_pay_logotype_RGB" transform="translate(5965.1 -10735.9)">
      <g id="Group_5" data-name="Group 5" transform="translate(20.9 13.9)">
        <path id="Path_1080_00000150083261872635782590000015777129012552984455_" d="M22.9,35.273H43.632c2.265,0,2.526-.523,2.526-2.961v-11.5A1.933,1.933,0,0,0,44.242,18.9H22.9a1.829,1.829,0,0,0-2,1.829V33.357a1.933,1.933,0,0,0,1.916,1.916Z" transform="translate(-20.9 -14.544)" fill="#fff" stroke="#234182" stroke-width="1.246" fill-rule="evenodd"/>
        <rect id="Rectangle_1962_00000028287111565029434180000014933724105040446634_" width="5.487" height="1.655" transform="translate(1.742 15.852)" fill="#7fc198"/>
        <rect id="Rectangle_1963_00000037651463808640012840000015630805177618158213_" width="25.084" height="3.31" transform="translate(0.087 7.665)" fill="#234182"/>
        <circle id="Ellipse_515_00000093169260925401358260000009504376471645905588_" cx="6.532" cy="6.532" r="6.532" transform="translate(16.984 0)" fill="#7fc198"/>
        <circle id="Ellipse_516_00000154390378352358051050000016243454328209336459_" cx="6.532" cy="6.532" r="6.532" transform="translate(16.984 0)" fill="#7fc198"/>
        <path id="Path_1082_00000116919089283882387120000009609780676218658436_" d="M43.2,20.926l3.658,3.31L51.126,18.4" transform="translate(-23.777 -14.481)" fill="none" stroke="#234182" stroke-linecap="round" stroke-width="1.869"/>
      </g>
      <g id="Group_6" data-name="Group 6" transform="translate(57.829 17.732)">
        <path id="Path_1" data-name="Path 1" d="M72.968,35.632H63.3V18.3h9.668v1.829H65.3V25.7h7.229v1.742H65.3V33.8h7.665Z" transform="translate(-63.3 -18.3)" fill="#224281"/>
        <path id="Path_2" data-name="Path 2" d="M83.623,36.5a5.573,5.573,0,0,1-4.355-1.742A7.074,7.074,0,0,1,77.7,29.794a7.464,7.464,0,0,1,1.568-5.052A5.479,5.479,0,0,1,83.71,23a15.642,15.642,0,0,1,1.916.174,10.624,10.624,0,0,1,1.481.435l-.61,1.655a6.527,6.527,0,0,0-1.394-.435c-.61,0-1.045-.087-1.394-.087-2.613,0-4.006,1.655-4.006,5.052a6.3,6.3,0,0,0,.958,3.658,3.264,3.264,0,0,0,2.874,1.306,9.4,9.4,0,0,0,3.31-.7V35.8a6.094,6.094,0,0,1-3.222.7Z" transform="translate(-65.158 -18.906)" fill="#224281"/>
        <path id="Path_3" data-name="Path 3" d="M102.932,29.819a7.375,7.375,0,0,1-1.568,4.965,5.532,5.532,0,0,1-4.442,1.829,6.442,6.442,0,0,1-3.135-.784,5.538,5.538,0,0,1-2.09-2.352,7.7,7.7,0,0,1-.7-3.571,7.375,7.375,0,0,1,1.568-4.965,6.31,6.31,0,0,1,8.8.087A6.612,6.612,0,0,1,102.932,29.819Zm-9.929,0a6.715,6.715,0,0,0,.958,3.832,4.009,4.009,0,0,0,5.923,0,6.086,6.086,0,0,0,1.045-3.832,5.816,5.816,0,0,0-1.045-3.745,4.009,4.009,0,0,0-5.923,0A6.041,6.041,0,0,0,93,29.819Z" transform="translate(-66.874 -18.932)" fill="#224281"/>
        <path id="Path_4" data-name="Path 4" d="M117.584,36.239V27.79a3.6,3.6,0,0,0-.7-2.352,2.977,2.977,0,0,0-2.265-.784,3.466,3.466,0,0,0-2.961,1.132,5.586,5.586,0,0,0-.958,3.658v6.794h-2V23.261h1.568L110.616,25h.087a4.524,4.524,0,0,1,1.655-1.481A5.564,5.564,0,0,1,114.8,23a4.892,4.892,0,0,1,3.571,1.132,5,5,0,0,1,1.219,3.658v8.448h-2Z" transform="translate(-69.158 -18.906)" fill="#224281"/>
        <path id="Path_5" data-name="Path 5" d="M129.736,34.445a4.24,4.24,0,0,0,1.045-.087,5.55,5.55,0,0,0,.784-.174v1.481a4.622,4.622,0,0,1-.958.261,5.358,5.358,0,0,1-1.132.087c-2.526,0-3.745-1.306-3.745-4.006V24.255H123.9v-.784l1.829-.784L126.6,19.9h1.132v3.048h3.745v1.568h-3.745v7.665a2.858,2.858,0,0,0,.523,1.829A2.491,2.491,0,0,0,129.736,34.445Z" transform="translate(-71.119 -18.506)" fill="#224281"/>
        <path id="Path_6" data-name="Path 6" d="M146.974,23.352a4.939,4.939,0,0,1-1.829,4.094,8.026,8.026,0,0,1-5.139,1.394h-2v6.794h-2V18.3h4.529C144.8,18.3,146.974,19.955,146.974,23.352ZM138,27.1h1.829a6.7,6.7,0,0,0,3.919-.871,3.262,3.262,0,0,0,1.219-2.787,2.819,2.819,0,0,0-1.132-2.526,6.194,6.194,0,0,0-3.484-.871H138.09V27.1Z" transform="translate(-72.681 -18.3)" fill="#224281"/>
        <path id="Path_7" data-name="Path 7" d="M160.271,36.265l-.348-1.829h-.087a5.423,5.423,0,0,1-1.916,1.655,6.432,6.432,0,0,1-2.439.435,4.724,4.724,0,0,1-3.048-.958,3.793,3.793,0,0,1-1.132-2.874c0-2.613,2.09-4.006,6.271-4.094l2.177-.087v-.784a3.348,3.348,0,0,0-.7-2.265,2.544,2.544,0,0,0-2.09-.7,9.143,9.143,0,0,0-3.658.958l-.61-1.481a7.441,7.441,0,0,1,2.09-.784,10.64,10.64,0,0,1,2.265-.261,5.048,5.048,0,0,1,3.484,1.045,4.243,4.243,0,0,1,1.132,3.31v8.884h-1.394Zm-4.442-1.394a3.884,3.884,0,0,0,2.874-1.045,3.813,3.813,0,0,0,1.045-2.787V29.906l-2,.087a7.642,7.642,0,0,0-3.4.7,2.23,2.23,0,0,0-1.045,2,2.168,2.168,0,0,0,.61,1.655A3.312,3.312,0,0,0,155.829,34.871Z" transform="translate(-74.655 -18.932)" fill="#224281"/>
        <path id="Path_8" data-name="Path 8" d="M165.6,23.287h2.09l2.874,7.4a21.687,21.687,0,0,1,1.132,3.658h.087c.087-.435.348-1.132.61-2.09.348-.958,1.394-4.006,3.223-9.058h2.09L172.132,38a7.451,7.451,0,0,1-1.916,3.135,4.257,4.257,0,0,1-2.7.958,10.721,10.721,0,0,1-1.742-.174V40.358a7.67,7.67,0,0,0,1.481.174,2.937,2.937,0,0,0,2.874-2.265l.7-1.829Z" transform="translate(-76.5 -18.932)" fill="#224281"/>
      </g>
    </g>
    <g id="Page-1" transform="translate(6135 -10719)">
      <g id="Ecoints_homepage_step_01_design_mobile_375px-Copy-4">
        <g id="visa">
          <path id="Shape" d="M42.74,0c-5.344,0-9.1,2.821-9.131,6.855-.034,2.988,2.684,4.654,4.729,5.648,2.109,1.015,2.814,1.668,2.807,2.576-.021,1.392-1.688,2.027-3.237,2.027a10.891,10.891,0,0,1-5.08-1.086l-.7-.331-.756,4.649a16.465,16.465,0,0,0,6.022,1.106c5.671,0,9.36-2.789,9.4-7.094.022-2.37-1.421-4.164-4.54-5.645-1.883-.963-3.048-1.6-3.03-2.577,0-.862.977-1.786,3.1-1.786a9.5,9.5,0,0,1,4.043.8l.482.239.735-4.5A13.432,13.432,0,0,0,42.739,0ZM25.964.362l-3.38,20.774h5.4L31.366.362h-5.4Zm-7.911.02L12.765,14.54,12.2,11.664C10.885,8.136,8.034,4.436,4.714,2.936l4.837,18.18h5.718L23.773.382Zm39.209,0a2.676,2.676,0,0,0-2.835,1.724L46.409,21.143h5.674s.928-2.562,1.137-3.123c.619,0,6.13.012,6.916.012.167.724.658,3.111.658,3.111H65.81L61.436.384H57.262Zm.382,5.6L58,7.775s1.038,4.957,1.255,6H54.774c.449-1.192,2.152-5.807,2.152-5.807-.033.056.443-1.2.718-1.979Z" transform="translate(0.902)" fill="#0023a0"/>
          <path id="Path" d="M8.763.312H.051L0,.669c6.774,1.72,11.243,5.945,13.1,10.94L11.21,2.062A2.265,2.265,0,0,0,8.763.312" transform="translate(0 0.06)" fill="#ffab00"/>
        </g>
      </g>
    </g>
    <g id="Ecoints_homepage_step_01_design_mobile_375px-Copy-4-2" data-name="Ecoints_homepage_step_01_design_mobile_375px-Copy-4" transform="translate(6212 -10726.998)">
      <g id="mastercard">
        <g id="Group" transform="translate(2.485 30.901)">
          <path id="Path-2" data-name="Path" d="M5.874,1.661a1.512,1.512,0,0,0-.5-.316,1.75,1.75,0,0,0-.636-.112,3,3,0,0,0-.385.037,1.507,1.507,0,0,0-.385.112,2.1,2.1,0,0,0-.347.2,1.229,1.229,0,0,0-.289.335,1.256,1.256,0,0,0-.539-.5A1.593,1.593,0,0,0,2,1.233a1.825,1.825,0,0,0-.308.019,1.481,1.481,0,0,0-.308.093,1.259,1.259,0,0,0-.308.167,1.2,1.2,0,0,0-.25.279V1.326H0V5.175H.847V3.036a.95.95,0,0,1,.077-.428,1.03,1.03,0,0,1,.212-.316.759.759,0,0,1,.308-.186,1.284,1.284,0,0,1,.385-.074.841.841,0,0,1,.655.26,1.084,1.084,0,0,1,.231.744V5.175h.847V3.036a.95.95,0,0,1,.077-.428,1.03,1.03,0,0,1,.212-.316.759.759,0,0,1,.308-.186,1.284,1.284,0,0,1,.385-.074.841.841,0,0,1,.655.26,1.084,1.084,0,0,1,.231.744V5.175h.847V2.758a1.588,1.588,0,0,0-.116-.614A.971.971,0,0,0,5.874,1.661Z" transform="translate(0 0.236)" fill="#1d1d1b"/>
          <path id="Shape-2" data-name="Shape" d="M9.188,1.791a1.4,1.4,0,0,0-.52-.409,1.511,1.511,0,0,0-.732-.149,2.2,2.2,0,0,0-.79.149,1.809,1.809,0,0,0-.636.428,2.049,2.049,0,0,0-.424.632,2.218,2.218,0,0,0-.154.818,2.294,2.294,0,0,0,.154.818,1.851,1.851,0,0,0,.424.632,1.887,1.887,0,0,0,.636.428,2.2,2.2,0,0,0,.79.149,1.7,1.7,0,0,0,.732-.149,1.4,1.4,0,0,0,.52-.409v.465h.867V1.345H9.188ZM9.169,3.743a1.057,1.057,0,0,1-.25.39.931.931,0,0,1-.385.26,1.383,1.383,0,0,1-.481.093,1.328,1.328,0,0,1-.5-.093,1.385,1.385,0,0,1-.385-.26,1.327,1.327,0,0,1-.231-.39A1.343,1.343,0,0,1,6.86,3.26a1.343,1.343,0,0,1,.077-.483,1.327,1.327,0,0,1,.231-.39.931.931,0,0,1,.385-.26,1.092,1.092,0,0,1,.5-.093,1.3,1.3,0,0,1,.481.093,1.076,1.076,0,0,1,.385.26,1.375,1.375,0,0,1,.25.39,1.354,1.354,0,0,1,.1.483,1.963,1.963,0,0,1-.1.483Z" transform="translate(1.135 0.236)" fill="#1d1d1b"/>
          <path id="Path-3" data-name="Path" d="M13.263,3.257a2.314,2.314,0,0,0-1.021-.372l-.4-.056a1.37,1.37,0,0,0-.25-.037.706.706,0,0,1-.212-.074.83.83,0,0,1-.135-.112.222.222,0,0,1-.058-.167A.391.391,0,0,1,11.38,2.1a.948.948,0,0,1,.559-.13,2.441,2.441,0,0,1,.366.037c.116.019.231.056.347.074a2.289,2.289,0,0,1,.289.112,2,2,0,0,1,.231.112l.366-.651a2.588,2.588,0,0,0-.732-.3,3.394,3.394,0,0,0-.886-.112,2.709,2.709,0,0,0-.693.093,1.475,1.475,0,0,0-.52.242,1.282,1.282,0,0,0-.327.39,1.1,1.1,0,0,0-.116.521.9.9,0,0,0,.347.744,1.958,1.958,0,0,0,1,.372l.424.056a1.931,1.931,0,0,1,.52.149.326.326,0,0,1,.173.279.357.357,0,0,1-.231.335,1.346,1.346,0,0,1-.674.13,3.272,3.272,0,0,1-.443-.037,1.535,1.535,0,0,1-.347-.093,1.023,1.023,0,0,1-.289-.13c-.077-.056-.154-.093-.231-.149l-.4.632a1.837,1.837,0,0,0,.462.26,4.444,4.444,0,0,0,.462.149,4.114,4.114,0,0,0,.424.074,2.543,2.543,0,0,0,.366.019,3.226,3.226,0,0,0,.77-.093,1.633,1.633,0,0,0,.578-.26,1.118,1.118,0,0,0,.347-.39,1.075,1.075,0,0,0,.116-.5.866.866,0,0,0-.375-.782Z" transform="translate(1.933 0.239)" fill="#1d1d1b"/>
          <path id="Shape-3" data-name="Shape" d="M20.136,1.791a1.617,1.617,0,0,0-.6-.409,2.024,2.024,0,0,0-.77-.149,2.309,2.309,0,0,0-.809.149,2.047,2.047,0,0,0-.636.409,2,2,0,0,0-.4.632,2.218,2.218,0,0,0-.154.818,2.4,2.4,0,0,0,.154.837,1.613,1.613,0,0,0,.424.632,1.76,1.76,0,0,0,.636.409,2.336,2.336,0,0,0,.828.149,3.248,3.248,0,0,0,.867-.112,1.977,1.977,0,0,0,.77-.428l-.424-.595a2,2,0,0,1-.559.3,1.7,1.7,0,0,1-.6.112,1.515,1.515,0,0,1-.4-.056.991.991,0,0,1-.347-.167,1.376,1.376,0,0,1-.27-.3,1.125,1.125,0,0,1-.154-.446h2.947c0-.056.019-.093.019-.149V3.26a2.218,2.218,0,0,0-.135-.818,2.19,2.19,0,0,0-.387-.651ZM17.69,2.925a1.5,1.5,0,0,1,.116-.39,1.2,1.2,0,0,1,.212-.3.759.759,0,0,1,.308-.186,1.3,1.3,0,0,1,.4-.074.934.934,0,0,1,.674.242,1.122,1.122,0,0,1,.327.707Z" transform="translate(3.207 0.236)" fill="#1d1d1b"/>
          <path id="Shape-4" data-name="Shape" d="M29.8,1.791a1.4,1.4,0,0,0-.52-.409,1.511,1.511,0,0,0-.732-.149,2.2,2.2,0,0,0-.79.149,1.809,1.809,0,0,0-.636.428,2.049,2.049,0,0,0-.424.632,2.218,2.218,0,0,0-.154.818,2.294,2.294,0,0,0,.154.818,1.851,1.851,0,0,0,.424.632,1.887,1.887,0,0,0,.636.428,2.2,2.2,0,0,0,.79.149,1.7,1.7,0,0,0,.732-.149,1.4,1.4,0,0,0,.52-.409v.465h.867V1.345H29.8Zm-.039,1.952a1.057,1.057,0,0,1-.25.39.931.931,0,0,1-.385.26,1.383,1.383,0,0,1-.481.093,1.329,1.329,0,0,1-.5-.093,1.274,1.274,0,0,1-.385-.26,1.012,1.012,0,0,1-.231-.39,1.343,1.343,0,0,1-.077-.483,1.343,1.343,0,0,1,.077-.483,1.327,1.327,0,0,1,.231-.39.931.931,0,0,1,.385-.26,1.092,1.092,0,0,1,.5-.093,1.3,1.3,0,0,1,.481.093,1.076,1.076,0,0,1,.385.26,1.375,1.375,0,0,1,.25.39,1.354,1.354,0,0,1,.1.483,1.354,1.354,0,0,1-.1.483Z" transform="translate(5.078 0.236)" fill="#1d1d1b"/>
          <path id="Path-4" data-name="Path" d="M16.328,4.586a1.038,1.038,0,0,1-.4.074,1.008,1.008,0,0,1-.25-.037.441.441,0,0,1-.193-.13.638.638,0,0,1-.135-.223.873.873,0,0,1-.058-.335V2.261h1.387V1.5H15.288V.328H14.4V1.5h-.79v.762h.79V3.953a1.536,1.536,0,0,0,.385,1.134,1.456,1.456,0,0,0,1.059.372,1.89,1.89,0,0,0,.674-.112c.135-.056.25-.112.366-.167L16.6,4.474C16.5,4.511,16.406,4.548,16.328,4.586Z" transform="translate(2.604 0.063)" fill="#1d1d1b"/>
          <path id="Path-5" data-name="Path" d="M22.785,1.233a1.467,1.467,0,0,0-.655.13,1.528,1.528,0,0,0-.5.483v-.5h-.79V5.193h.79V3.074a1.09,1.09,0,0,1,.077-.446.747.747,0,0,1,.193-.316.881.881,0,0,1,.308-.2,1.284,1.284,0,0,1,.385-.074,2.8,2.8,0,0,1,.347.037c.058.019.116.019.173.037l.25-.8c-.077-.019-.135-.037-.212-.056a2.29,2.29,0,0,0-.366-.023Z" transform="translate(3.986 0.236)" fill="#1d1d1b"/>
          <path id="Path-6" data-name="Path" d="M32.922,1.233a1.467,1.467,0,0,0-.655.13,1.528,1.528,0,0,0-.5.483v-.5h-.79V5.193h.79V3.074a1.09,1.09,0,0,1,.077-.446.747.747,0,0,1,.193-.316.881.881,0,0,1,.308-.2,1.284,1.284,0,0,1,.385-.074,2.8,2.8,0,0,1,.347.037c.058.019.116.019.173.037l.25-.8c-.077-.019-.135-.037-.212-.056A2.172,2.172,0,0,0,32.922,1.233Z" transform="translate(5.925 0.236)" fill="#1d1d1b"/>
          <path id="Shape-5" data-name="Shape" d="M36.543,0V2.027a1.4,1.4,0,0,0-.52-.409,1.511,1.511,0,0,0-.732-.149,2.2,2.2,0,0,0-.79.149,1.809,1.809,0,0,0-.636.428,2.049,2.049,0,0,0-.424.632,2.218,2.218,0,0,0-.154.818,2.294,2.294,0,0,0,.154.818,1.851,1.851,0,0,0,.424.632,1.887,1.887,0,0,0,.636.428,2.2,2.2,0,0,0,.79.149,1.7,1.7,0,0,0,.732-.149,1.4,1.4,0,0,0,.52-.409V5.43h.867V.019h-.867ZM36.5,3.979a1.057,1.057,0,0,1-.25.39.931.931,0,0,1-.385.26,1.383,1.383,0,0,1-.481.093,1.329,1.329,0,0,1-.5-.093,1.385,1.385,0,0,1-.385-.26,1.327,1.327,0,0,1-.231-.39,1.343,1.343,0,0,1-.077-.483,1.343,1.343,0,0,1,.077-.483,1.327,1.327,0,0,1,.231-.39.931.931,0,0,1,.385-.26,1.092,1.092,0,0,1,.5-.093,1.3,1.3,0,0,1,.481.093,1.076,1.076,0,0,1,.385.26,1.376,1.376,0,0,1,.25.39,1.354,1.354,0,0,1,.1.483,1.354,1.354,0,0,1-.1.483Z" transform="translate(6.367)" fill="#1d1d1b"/>
          <path id="Path-7" data-name="Path" d="M24.413,2.367a1.489,1.489,0,0,1,.4-.26,1.407,1.407,0,0,1,.5-.093h0a1.632,1.632,0,0,1,.539.093,1.187,1.187,0,0,1,.424.242L26.7,1.68a1.66,1.66,0,0,0-.539-.3,2.139,2.139,0,0,0-.847-.149,2.446,2.446,0,0,0-.847.149,2.06,2.06,0,0,0-.674.428,1.812,1.812,0,0,0-.443.632,1.856,1.856,0,0,0-.154.8,2.12,2.12,0,0,0,.154.8,1.9,1.9,0,0,0,.443.632,2.283,2.283,0,0,0,.674.428,2.139,2.139,0,0,0,.847.149,2.446,2.446,0,0,0,.847-.149,2.185,2.185,0,0,0,.539-.3l-.424-.669a1.042,1.042,0,0,1-.424.242,1.725,1.725,0,0,1-.539.093h0a1.492,1.492,0,0,1-.5-.093,1.151,1.151,0,0,1-.4-.26,1.43,1.43,0,0,1-.27-.39,1.357,1.357,0,0,1,0-1,2.152,2.152,0,0,1,.27-.356Z" transform="translate(4.438 0.236)" fill="#1d1d1b"/>
        </g>
        <path id="Shape-6" data-name="Shape" d="M40.441,30.013a.366.366,0,0,1,.154.038.345.345,0,0,1,.135.1.807.807,0,0,1,.1.133.445.445,0,0,1,.039.152.356.356,0,0,1-.039.152.342.342,0,0,1-.1.133.815.815,0,0,1-.135.1.457.457,0,0,1-.154.038.567.567,0,0,1-.173-.038.345.345,0,0,1-.135-.1.806.806,0,0,1-.1-.133A.227.227,0,0,1,40,30.432a.356.356,0,0,1,.039-.152.342.342,0,0,1,.1-.133.815.815,0,0,1,.135-.1.567.567,0,0,1,.167-.034Zm0,.686a.247.247,0,0,0,.116-.019c.039-.019.058-.038.1-.057a.416.416,0,0,0,.058-.1.349.349,0,0,0,0-.229c-.019-.038-.039-.057-.058-.1a.422.422,0,0,0-.1-.057.36.36,0,0,0-.231,0c-.039.019-.058.038-.1.057a.416.416,0,0,0-.058.1.349.349,0,0,0,0,.229c.019.038.039.057.058.1a.422.422,0,0,0,.1.057.247.247,0,0,0,.115.02Zm.039-.457a.164.164,0,0,1,.116.038.145.145,0,0,1,.039.1c0,.038,0,.057-.019.076a.1.1,0,0,1-.077.038l.116.133h-.116l-.1-.133H40.42v.133h-.1v-.362h.154Zm-.077.076v.057h.116l.019-.019c0-.019,0-.019-.019-.019H40.4Z" transform="translate(7.651 5.741)" fill="#1d1d1b"/>
        <g id="Group-2" data-name="Group">
          <path id="Path-8" data-name="Path" d="M18.643,14.484a14.294,14.294,0,0,1,5.7-11.36A15.333,15.333,0,0,0,15.023,0,14.764,14.764,0,0,0,0,14.5,14.764,14.764,0,0,0,15.023,29a15.333,15.333,0,0,0,9.322-3.124,14.393,14.393,0,0,1-5.7-11.392Z" fill="#e30d17"/>
          <path id="Oval" d="M21.351,25.342c1.178,0,5.7-5.086,5.7-11.36s-4.091-11.36-5.7-11.36-5.7,5.086-5.7,11.36S20.172,25.342,21.351,25.342Z" transform="translate(2.994 0.502)" fill="#eb610a"/>
          <path id="Shape-7" data-name="Shape" d="M40.026,18.845v-.438h-.173v-.114h.481v.114h-.173v.438Zm.944,0v-.381l-.135.324H40.7l-.135-.324v.381H40.43v-.553h.193l.135.362.135-.362h.193v.553Z" transform="translate(7.623 3.499)" fill="#f69f00"/>
          <path id="Path-9" data-name="Path" d="M29.741,0a15.333,15.333,0,0,0-9.322,3.124,14.169,14.169,0,0,1,0,22.72,15.333,15.333,0,0,0,9.322,3.124,14.764,14.764,0,0,0,15.023-14.5C44.764,6.489,38.042,0,29.741,0Z" transform="translate(3.906)" fill="#f69f00"/>
        </g>
      </g>
    </g>
  </g>
</svg>
